<?xml version="1.0" encoding="UTF-8"?>
<svg version="1.1" xmlns="http://www.w3.org/2000/svg" width="192" height="192">
<path d="M0 0 C2.18341574 0.00851187 4.36420341 -0.02037972 6.54736328 -0.05200195 C26.18907418 -0.14916493 47.20012874 6.5397496 62.31689453 19.44604492 C62.31689453 20.10604492 62.31689453 20.76604492 62.31689453 21.44604492 C62.87376953 21.69354492 63.43064453 21.94104492 64.00439453 22.19604492 C69.42644607 25.12688359 73.74113862 29.45718959 77.31689453 34.44604492 C77.31689453 35.10604492 77.31689453 35.76604492 77.31689453 36.44604492 C78.30689453 36.77604492 79.29689453 37.10604492 80.31689453 37.44604492 C93.58704777 53.0951612 98.88137955 74.11053967 98.76293945 94.12915039 C98.75442759 96.31256613 98.78331917 98.4933538 98.81494141 100.67651367 C98.91210439 120.31822458 92.22318985 141.32927913 79.31689453 156.44604492 C78.65689453 156.44604492 77.99689453 156.44604492 77.31689453 156.44604492 C77.06939453 157.00291992 76.82189453 157.55979492 76.56689453 158.13354492 C73.63605586 163.55559646 69.30574986 167.87028901 64.31689453 171.44604492 C63.65689453 171.44604492 62.99689453 171.44604492 62.31689453 171.44604492 C61.98689453 172.43604492 61.65689453 173.42604492 61.31689453 174.44604492 C45.66777825 187.71619816 24.65239978 193.01052994 4.63378906 192.89208984 C2.45037333 192.88357798 0.26958565 192.91246956 -1.91357422 192.9440918 C-21.55528512 193.04125478 -42.56633968 186.35234024 -57.68310547 173.44604492 C-57.68310547 172.78604492 -57.68310547 172.12604492 -57.68310547 171.44604492 C-58.23998047 171.19854492 -58.79685547 170.95104492 -59.37060547 170.69604492 C-64.79265701 167.76520625 -69.10734955 163.43490025 -72.68310547 158.44604492 C-72.68310547 157.78604492 -72.68310547 157.12604492 -72.68310547 156.44604492 C-73.67310547 156.11604492 -74.66310547 155.78604492 -75.68310547 155.44604492 C-88.9532587 139.79692864 -94.24759049 118.78155017 -94.12915039 98.76293945 C-94.12063852 96.57952372 -94.14953011 94.39873604 -94.18115234 92.21557617 C-94.27831533 72.57386527 -87.58940079 51.56281071 -74.68310547 36.44604492 C-74.02310547 36.44604492 -73.36310547 36.44604492 -72.68310547 36.44604492 C-72.43560547 35.88916992 -72.18810547 35.33229492 -71.93310547 34.75854492 C-69.0022668 29.33649338 -64.6719608 25.02180084 -59.68310547 21.44604492 C-59.02310547 21.44604492 -58.36310547 21.44604492 -57.68310547 21.44604492 C-57.18810547 19.96104492 -57.18810547 19.96104492 -56.68310547 18.44604492 C-41.03398919 5.17589169 -20.01861072 -0.11844009 0 0 Z " fill="#000000" transform="translate(93.68310546875,-0.446044921875)"/>
<path d="M0 0 C6.6 0 13.2 0 20 0 C21.25 6.6875 21.25 6.6875 21.67797852 8.98876953 C22.45669875 13.16184856 23.26025201 17.32890654 24.08984375 21.4921875 C24.27192383 22.41684814 24.45400391 23.34150879 24.64160156 24.29418945 C24.99893706 26.10627674 25.36137142 27.91736782 25.72949219 29.72729492 C26.68099461 34.58542886 27.19478742 39.04971293 27 44 C27.66 44 28.32 44 29 44 C28.96261719 43.03964844 28.92523438 42.07929687 28.88671875 41.08984375 C28.89021437 36.4464974 29.83944776 32.08603193 30.8125 27.5625 C31.18067167 25.79707996 31.54784456 24.03145136 31.9140625 22.265625 C32.09743164 21.38712891 32.28080078 20.50863281 32.46972656 19.60351562 C33.53275609 14.38429517 34.450983 9.13778801 35.38671875 3.89453125 C36 1 36 1 37 0 C38.4887186 -0.08669432 39.981445 -0.10703494 41.47265625 -0.09765625 C42.28226807 -0.09515869 43.09187988 -0.09266113 43.92602539 -0.09008789 C44.96106201 -0.08098389 45.99609863 -0.07187988 47.0625 -0.0625 C50.341875 -0.041875 53.62125 -0.02125 57 0 C59.64 12.87 62.28 25.74 65 39 C66.69136442 35.61727115 67.39952106 33.60287363 68 30 C68.2460498 28.55282593 68.2460498 28.55282593 68.49707031 27.07641602 C68.66303711 26.06119873 68.82900391 25.04598145 69 24 C69.17370117 22.96866943 69.34740234 21.93733887 69.52636719 20.87475586 C70.02333444 17.91742775 70.51234795 14.95887589 71 12 C71.23370204 10.60535581 71.4679675 9.21080576 71.703125 7.81640625 C72.14086597 5.21184749 72.57159817 2.60611116 73 0 C79.6 0 86.2 0 93 0 C88 20 83 40 78 60 C70.08 60 62.16 60 54 60 C52.73517952 55.57312833 51.67855629 51.67355192 50.96484375 47.20703125 C50.79533203 46.16482422 50.62582031 45.12261719 50.45117188 44.04882812 C50.1969043 42.4468457 50.1969043 42.4468457 49.9375 40.8125 C49.59389375 38.67294438 49.24889861 36.53361124 48.90234375 34.39453125 C48.75273193 33.45456299 48.60312012 32.51459473 48.44897461 31.54614258 C48.05785319 29.32808644 47.58024848 27.1750536 47 25 C44.52266652 32.61179822 42.82412364 40.27003729 41.3125 48.125 C41.08755859 49.27226563 40.86261719 50.41953125 40.63085938 51.6015625 C40.08279767 54.40017545 39.54076938 57.19996883 39 60 C31.08 60 23.16 60 15 60 C11.8048489 48.76543647 8.78939281 37.49005774 5.86373901 26.18276978 C5.45628367 24.60917081 5.04754185 23.03590437 4.63748169 21.46298218 C4.05125392 19.21199711 3.47025323 16.95972357 2.890625 14.70703125 C2.71476364 14.03459381 2.53890228 13.36215637 2.35771179 12.66934204 C1.27120807 8.41512748 0.62724185 4.39069292 0 0 Z " fill="#FAFAFA" transform="translate(81,66)"/>
<path d="M0 0 C5.0325 -0.061875 10.065 -0.12375 15.25 -0.1875 C17.59206543 -0.22846802 17.59206543 -0.22846802 19.98144531 -0.27026367 C31.82262707 -0.34015641 43.96359564 0.42307383 53 9 C59.40548965 18.39471816 59.35638523 30.50964335 57.38671875 41.38671875 C55.29976026 47.9785656 51.89686264 52.36636985 46 56 C43.05382958 57.32577669 40.14290414 58.26646762 37 59 C36.28457031 59.17345947 35.56914063 59.34691895 34.83203125 59.52563477 C31.35317742 60.10834278 28.03942034 60.11171084 24.51171875 60.09765625 C23.22483154 60.09515869 21.93794434 60.09266113 20.61206055 60.09008789 C18.98695557 60.08098389 17.36185059 60.07187988 15.6875 60.0625 C7.9221875 60.0315625 7.9221875 60.0315625 0 60 C0 40.2 0 20.4 0 0 Z " fill="#F9F9F9" transform="translate(18,66)"/>
<path d="M0 0 C10.7 0 10.7 0 15 3 C19.35291585 8.12201028 19.56440097 12.09027233 19.375 18.5 C19.37371094 19.32886719 19.37242188 20.15773438 19.37109375 21.01171875 C19.30435511 25.6760083 18.93087551 29.67264778 17 34 C11.92281793 36.53859104 5.67646212 35 0 35 C0 23.45 0 11.9 0 0 Z " fill="#0A0A0A" transform="translate(37,78)"/>
</svg>
