<svg xmlns="http://www.w3.org/2000/svg" xmlns:xlink="http://www.w3.org/1999/xlink" width="300" zoomAndPan="magnify" viewBox="0 0 224.87999 64.499998" height="86" preserveAspectRatio="xMidYMid meet" version="1.0"><defs><clipPath id="bf35be685a"><path d="M 1.605469 4.214844 L 71.0625 4.214844 L 71.0625 52.886719 L 1.605469 52.886719 Z M 1.605469 4.214844 " clip-rule="nonzero"/></clipPath><clipPath id="5e26d680b6"><path d="M 10.734375 4.214844 L 60 4.214844 L 60 39.679688 L 10.734375 39.679688 Z M 10.734375 4.214844 " clip-rule="nonzero"/></clipPath></defs><path fill="#ffffff" d="M 69.050781 50.085938 C 66.703125 50.085938 65.089844 49.390625 64.210938 47.996094 C 63.34375 46.597656 62.910156 44.507812 62.910156 41.726562 L 62.910156 18.378906 L 70.480469 18.378906 L 70.480469 40.242188 C 70.480469 40.4375 70.480469 40.976562 70.480469 41.851562 C 70.480469 42.71875 70.613281 43.332031 70.882812 43.695312 C 71.152344 44.046875 71.570312 44.21875 72.140625 44.21875 C 72.914062 44.21875 73.398438 43.902344 73.597656 43.261719 C 73.804688 42.609375 73.90625 41.6875 73.90625 40.488281 L 73.90625 40.242188 L 73.953125 18.378906 L 81.417969 18.378906 L 81.417969 49.746094 L 73.90625 49.746094 L 73.90625 46.402344 C 73.386719 47.714844 72.785156 48.660156 72.09375 49.234375 C 71.410156 49.800781 70.394531 50.085938 69.050781 50.085938 Z M 69.050781 50.085938 " fill-opacity="1" fill-rule="nonzero"/><path fill="#ffffff" d="M 87.726562 49.746094 L 87.726562 20.007812 L 83.351562 20.007812 L 83.351562 12.929688 L 99.488281 12.929688 L 99.488281 20.007812 L 95.113281 20.007812 L 95.113281 49.746094 Z M 87.726562 49.746094 " fill-opacity="1" fill-rule="nonzero"/><path fill="#ffffff" d="M 110.21875 50.085938 C 106.992188 50.085938 104.671875 49.207031 103.269531 47.441406 C 101.863281 45.667969 101.160156 43.019531 101.160156 39.496094 L 101.160156 26.910156 C 101.160156 24.023438 101.984375 21.824219 103.640625 20.316406 C 105.304688 18.796875 107.628906 18.039062 110.605469 18.039062 C 116.644531 18.039062 119.667969 20.996094 119.667969 26.910156 L 119.667969 29.171875 C 119.667969 31.460938 119.640625 33.320312 119.589844 34.746094 L 108.683594 34.746094 L 108.683594 40.828125 C 108.683594 41.914062 108.796875 42.765625 109.023438 43.382812 C 109.25 43.996094 109.738281 44.296875 110.484375 44.296875 C 111.050781 44.296875 111.453125 44.128906 111.691406 43.785156 C 111.941406 43.445312 112.085938 43.054688 112.128906 42.609375 C 112.175781 42.167969 112.203125 41.519531 112.203125 40.660156 L 112.203125 37.625 L 119.667969 37.625 L 119.667969 39.421875 C 119.667969 43.074219 118.957031 45.769531 117.542969 47.503906 C 116.121094 49.230469 113.683594 50.085938 110.21875 50.085938 Z M 112.203125 31.015625 L 112.203125 26.988281 C 112.203125 24.738281 111.644531 23.613281 110.527344 23.613281 C 109.265625 23.613281 108.636719 24.738281 108.636719 26.988281 L 108.636719 31.015625 Z M 112.203125 31.015625 " fill-opacity="1" fill-rule="nonzero"/><path fill="#ffffff" d="M 131.820312 50.085938 C 128.382812 50.085938 125.910156 49.21875 124.386719 47.472656 C 122.867188 45.730469 122.109375 43.058594 122.109375 39.46875 L 122.109375 29.773438 C 122.109375 27.0625 122.402344 24.859375 122.992188 23.164062 C 123.582031 21.460938 124.566406 20.183594 125.957031 19.324219 C 127.339844 18.46875 129.261719 18.039062 131.726562 18.039062 C 134.414062 18.039062 136.601562 18.746094 138.289062 20.144531 C 139.984375 21.539062 140.832031 23.496094 140.832031 26.011719 L 140.832031 30.8125 L 133.183594 30.8125 L 133.183594 26.382812 C 133.183594 25.558594 133.066406 24.925781 132.84375 24.480469 C 132.613281 24.039062 132.167969 23.816406 131.507812 23.816406 C 130.277344 23.816406 129.664062 24.6875 129.664062 26.429688 L 129.664062 41.648438 C 129.664062 42.363281 129.808594 42.972656 130.113281 43.476562 C 130.421875 43.972656 130.878906 44.21875 131.476562 44.21875 C 132.074219 44.21875 132.523438 43.980469 132.828125 43.492188 C 133.125 43.007812 133.261719 42.378906 133.230469 41.605469 L 133.183594 36.339844 L 140.832031 36.339844 L 140.832031 41.820312 C 140.832031 44.390625 139.996094 46.414062 138.320312 47.890625 C 136.644531 49.355469 134.476562 50.085938 131.820312 50.085938 Z M 131.820312 50.085938 " fill-opacity="1" fill-rule="nonzero"/><path fill="#ffffff" d="M 142.628906 49.746094 L 142.628906 43.058594 L 151.050781 19.710938 L 143.449219 19.710938 L 143.449219 12.929688 L 158.871094 12.929688 L 158.871094 19.355469 L 150.230469 42.980469 L 158.480469 42.980469 L 158.480469 49.746094 Z M 142.628906 49.746094 " fill-opacity="1" fill-rule="nonzero"/><path fill="#ffffff" d="M 170.1875 50.085938 C 163.917969 50.085938 160.785156 46.847656 160.785156 40.363281 L 160.785156 27.761719 C 160.785156 24.789062 161.625 22.429688 163.300781 20.671875 C 164.976562 18.917969 167.269531 18.039062 170.1875 18.039062 C 173.113281 18.039062 175.414062 18.917969 177.089844 20.671875 C 178.765625 22.429688 179.605469 24.789062 179.605469 27.761719 L 179.605469 40.363281 C 179.605469 46.847656 176.460938 50.085938 170.1875 50.085938 Z M 170.1875 44.296875 C 170.796875 44.296875 171.242188 44.089844 171.519531 43.664062 C 171.808594 43.230469 171.957031 42.640625 171.957031 41.898438 L 171.957031 26.570312 C 171.957031 24.734375 171.367188 23.816406 170.1875 23.816406 C 169.015625 23.816406 168.433594 24.734375 168.433594 26.570312 L 168.433594 41.898438 C 168.433594 42.640625 168.574219 43.230469 168.851562 43.664062 C 169.140625 44.089844 169.585938 44.296875 170.1875 44.296875 Z M 170.1875 44.296875 " fill-opacity="1" fill-rule="nonzero"/><path fill="#ffffff" d="M 182.386719 18.378906 L 189.894531 18.378906 L 189.894531 22.359375 C 190.210938 21.082031 190.753906 20.042969 191.523438 19.246094 C 192.296875 18.441406 193.328125 18.039062 194.625 18.039062 C 196.742188 18.039062 198.308594 18.691406 199.324219 19.992188 C 200.335938 21.289062 200.84375 23.140625 200.84375 25.53125 L 200.84375 49.746094 L 193.460938 49.746094 L 193.460938 26.308594 C 193.460938 25.617188 193.320312 25.03125 193.042969 24.542969 C 192.769531 24.058594 192.351562 23.816406 191.785156 23.816406 C 191.011719 23.816406 190.5 24.167969 190.25 24.867188 C 190.007812 25.570312 189.894531 26.503906 189.894531 27.667969 L 189.894531 49.746094 L 182.386719 49.746094 Z M 182.386719 18.378906 " fill-opacity="1" fill-rule="nonzero"/><path fill="#ffffff" d="M 212.601562 50.085938 C 209.375 50.085938 207.054688 49.207031 205.652344 47.441406 C 204.246094 45.667969 203.542969 43.019531 203.542969 39.496094 L 203.542969 26.910156 C 203.542969 24.023438 204.367188 21.824219 206.023438 20.316406 C 207.6875 18.796875 210.011719 18.039062 212.988281 18.039062 C 219.027344 18.039062 222.050781 20.996094 222.050781 26.910156 L 222.050781 29.171875 C 222.050781 31.460938 222.023438 33.320312 221.972656 34.746094 L 211.066406 34.746094 L 211.066406 40.828125 C 211.066406 41.914062 211.179688 42.765625 211.40625 43.382812 C 211.632812 43.996094 212.121094 44.296875 212.867188 44.296875 C 213.433594 44.296875 213.835938 44.128906 214.074219 43.785156 C 214.324219 43.445312 214.46875 43.054688 214.511719 42.609375 C 214.5625 42.167969 214.589844 41.519531 214.589844 40.660156 L 214.589844 37.625 L 222.050781 37.625 L 222.050781 39.421875 C 222.050781 43.074219 221.339844 45.769531 219.925781 47.503906 C 218.503906 49.230469 216.066406 50.085938 212.601562 50.085938 Z M 214.589844 31.015625 L 214.589844 26.988281 C 214.589844 24.738281 214.03125 23.613281 212.914062 23.613281 C 211.648438 23.613281 211.019531 24.738281 211.019531 26.988281 L 211.019531 31.015625 Z M 214.589844 31.015625 " fill-opacity="1" fill-rule="nonzero"/><g clip-path="url(#bf35be685a)"><path fill="#ffffff" d="M 71.398438 41.757812 C 63.28125 42.269531 51.273438 39.925781 38.648438 34.894531 C 17.871094 26.613281 3.308594 14.199219 6.121094 7.164062 C 6.550781 6.101562 7.351562 5.222656 8.476562 4.523438 C 3.238281 4.855469 -0.390625 6.367188 -1.492188 9.128906 C -4.304688 16.160156 10.257812 28.578125 31.035156 36.855469 C 34.472656 38.226562 37.859375 39.394531 41.140625 40.363281 C 39.40625 41.207031 37.460938 41.691406 35.40625 41.691406 L 22.269531 41.691406 L 22.269531 34.851562 C 18.023438 32.660156 14.214844 30.332031 10.996094 27.996094 L 10.996094 52.9375 L 35.40625 52.9375 C 43.3125 52.9375 50.34375 49.160156 54.804688 43.328125 C 61.082031 43.789062 66.152344 43.710938 71.398438 41.757812 " fill-opacity="1" fill-rule="nonzero"/></g><g clip-path="url(#5e26d680b6)"><path fill="#ff3131" d="M 22.269531 25.097656 L 22.269531 15.464844 L 35.40625 15.464844 C 42.652344 15.464844 48.542969 21.347656 48.542969 28.578125 C 48.542969 31.464844 47.605469 34.128906 46.015625 36.300781 C 49.902344 37.617188 53.683594 38.667969 57.246094 39.441406 C 58.886719 36.171875 59.816406 32.480469 59.816406 28.578125 C 59.816406 15.140625 48.867188 4.214844 35.40625 4.214844 L 10.996094 4.214844 L 10.996094 15.855469 C 13.601562 18.851562 17.460938 22.019531 22.269531 25.097656 " fill-opacity="1" fill-rule="nonzero"/></g></svg>